<?xml version="1.0" encoding="UTF-8" standalone="no"?>
<svg width="1024" height="1024" viewBox="0 0 1024 1024" version="1.1" xmlns="http://www.w3.org/2000/svg" style="fill-rule:evenodd;clip-rule:evenodd;stroke-linejoin:round;stroke-miterlimit:1.5;">
    <path d="M818.238,745.616C818.238,751.007 814.775,753.702 807.848,753.702L724.232,753.702C717.635,753.702 714.337,751.007 714.337,745.616L714.337,521.748C714.337,516.357 717.635,513.661 724.232,513.661L807.848,513.661C814.775,513.661 818.238,516.357 818.238,521.748L818.238,745.616ZM637.153,500.893C630.885,500.893 627.752,498.056 627.752,492.381L627.752,428.54C627.752,422.582 630.885,419.603 637.153,419.603L895.422,419.603C901.69,419.603 904.823,422.582 904.823,428.54L904.823,492.381C904.823,498.056 901.69,500.893 895.422,500.893L637.153,500.893Z" style="fill:rgb(198,255,0);fill-rule:nonzero;"/>
    <path d="M387.586,666.661C416.92,666.661 440.388,662.532 457.988,654.274C475.589,646.016 484.389,632.685 484.389,614.281C484.389,603.9 481.749,595.524 476.469,589.153C471.189,582.783 463.709,577.828 454.028,574.289C444.348,570.75 432.468,568.39 418.387,567.211C404.307,566.031 388.173,565.441 369.985,565.441L318.064,565.441L318.064,666.661L387.586,666.661ZM137.658,392.731C137.658,383.293 143.524,378.574 155.258,378.574L298.703,378.574C311.61,378.574 318.064,383.293 318.064,392.731L318.064,453.604L361.185,453.604C393.453,453.604 417.654,450.301 433.788,443.695C449.921,437.088 457.988,423.875 457.988,404.056C457.988,386.596 450.215,374.445 434.668,367.603C419.12,360.761 394.626,357.339 361.185,357.339L137.658,357.339C125.337,357.339 119.177,352.621 119.177,343.183L119.177,248.334C119.177,238.896 125.337,234.177 137.658,234.177L361.185,234.177C402.84,234.177 440.241,237.245 473.389,243.379C506.537,249.514 534.698,258.951 557.872,271.692C581.046,284.433 598.793,300.713 611.114,320.532C623.434,340.352 629.594,363.946 629.594,391.315C629.594,414.438 625.194,434.965 616.394,452.896C607.593,470.828 595.273,486.636 579.433,500.321C601.727,512.118 620.061,528.516 634.434,549.515C648.808,570.514 655.995,593.754 655.995,619.236C655.995,649.437 649.542,675.272 636.634,696.743C623.727,718.214 605.54,735.91 582.073,749.83C558.605,763.751 530.444,773.897 497.59,780.267C464.735,786.638 428.067,789.823 387.586,789.823L156.138,789.823C143.818,789.823 137.658,785.104 137.658,775.666L137.658,392.731Z" style="fill:rgb(198,255,0);fill-rule:nonzero;"/>
</svg>
